{"title":"The Big Bang Theory_S05_E04_The Wiggly Finger Catalyst_1080i","uid":6726846,"size":437574214,"categoryP":"video","categoryS":"hd___tv_shows","magnet":"?xt=urn:btih:efd82da2fd2b07cf029cc091dd5e2aac11105f13&amp;dn=The+Big+Bang+Theory_S05_E04_The+Wiggly+Finger+Catalyst_1080i&amp;tr=udp%3A%2F%2Ftracker.openbittorrent.com%3A80&amp;tr=udp%3A%2F%2Fopen.demonii.com%3A1337&amp;tr=udp%3A%2F%2Ftracker.coppersurfer.tk%3A6969&amp;tr=udp%3A%2F%2Fexodus.desync.com%3A6969","seeders":0,"leechers":0,"uploader":"blisbell","files":1,"time":1317986295,"description":"Format/Info                      : Advanced Video Codec\nFormat profile                   : &lt;a class=&quot;__cf_email__&quot; href=&quot;/cdn-cgi/l/email-protection&quot; data-cfemail=&quot;7d35141a153d3149534d&quot;&gt;[email&amp;#160;protected]&lt;/a&gt;&lt;script data-cfhash='f9e31' type=&quot;text/javascript&quot;&gt;\n/* &lt;![CDATA[ */!function(){try{var t=&quot;currentScript&quot;in document?document.currentScript:function(){for(var t=document.getElementsByTagName(&quot;script&quot;),e=t.length;e--;)if(t[e].getAttribute(&quot;data-cfhash&quot;))return t[e]}();if(t&amp;&amp;t.previousSibling){var e,r,n,i,c=t.previousSibling,a=c.getAttribute(&quot;data-cfemail&quot;);if(a){for(e=&quot;&quot;,r=parseInt(a.substr(0,2),16),n=2;a.length-n;n+=2)i=parseInt(a.substr(n,2),16)^r,e+=String.fromCharCode(i);e=document.createTextNode(e),c.parentNode.replaceChild(e,c)}t.parentNode.removeChild(t);}}catch(u){}}()/* ]]&gt; */&lt;/script&gt;\nFormat settings, CABAC           : Yes\nFormat settings, ReFrames        : 4 frames\nCodec ID                         : V_MPEG4/ISO/AVC\nDuration                         : 19mn 39s\nBit rate                         : 2 524 Kbps\nWidth                            : 1 920 pixels\nHeight                           : 1 088 pixels\nDisplay aspect ratio             : 16:9\nFrame rate mode                  : Variable\nFrame rate                       : 29.970 fps\nColor space                      : YUV\nChroma subsampling               : 4:2:0\nBit depth                        : 8 bits\nScan type                        : Progressive\nBits/(Pixel*Frame)               : 0.040\nStream size                      : 355 MiB (85%)\nWriting library                  : x264 core 106 Ubuntu_2:0.106.1741-3\n\nFormat                           : AC-3\nFormat/Info                      : Audio Coding 3\nMode extension                   : CM (complete main)\nCodec ID                         : A_AC3\nDuration                         : 19mn 39s\nBit rate mode                    : Constant\nBit rate                         : 384 Kbps\nChannel(s)                       : 6 channels\nChannel positions                : Front: L C R, Side: L R, LFE\nSampling rate                    : 48.0 KHz\nBit depth                        : 16 bits\nCompression mode                 : Lossy\nDelay relative to video          : -1mn 5s\nStream size                      : 54.0 MiB (13%)\nLanguage                         : English\n\nSorry for that here is the right one picked wrong torrent file.","torrent":{"xt":"urn:btih:efd82da2fd2b07cf029cc091dd5e2aac11105f13","amp;dn":"The+Big+Bang+Theory_S05_E04_The+Wiggly+Finger+Catalyst_1080i","amp;tr":["udp%3A%2F%2Ftracker.openbittorrent.com%3A80","udp%3A%2F%2Fopen.demonii.com%3A1337","udp%3A%2F%2Ftracker.coppersurfer.tk%3A6969","udp%3A%2F%2Fexodus.desync.com%3A6969"],"infoHash":"efd82da2fd2b07cf029cc091dd5e2aac11105f13","infoHashBuffer":{"type":"Buffer","data":[239,216,45,162,253,43,7,207,2,156,192,145,221,94,42,172,17,16,95,19]},"announce":[],"urlList":[]}}